<svg xmlns="http://www.w3.org/2000/svg" viewBox="0 0 17.144 17.144">
  <defs>
    <style>
      .cls-1 {
        opacity: 0.5;
      }
    </style>
  </defs>
  <path id="inst" class="cls-1" d="M11.429-7.143A2.863,2.863,0,0,1,8.571-4.286,2.863,2.863,0,0,1,5.714-7.143,2.863,2.863,0,0,1,8.571-10,2.863,2.863,0,0,1,11.429-7.143Zm1.54,0a4.392,4.392,0,0,0-4.4-4.4,4.392,4.392,0,0,0-4.4,4.4,4.392,4.392,0,0,0,4.4,4.4A4.392,4.392,0,0,0,12.969-7.143Zm1.205-4.576a1.024,1.024,0,0,0-1.027-1.027,1.024,1.024,0,0,0-1.027,1.027,1.024,1.024,0,0,0,1.027,1.027A1.024,1.024,0,0,0,14.174-11.719Zm-5.6-2.455c1.25,0,3.929-.1,5.056.346a2.74,2.74,0,0,1,.982.647,2.74,2.74,0,0,1,.647.982c.446,1.127.346,3.806.346,5.056s.1,3.929-.346,5.056a2.74,2.74,0,0,1-.647.982,2.74,2.74,0,0,1-.982.647c-1.127.446-3.806.346-5.056.346s-3.929.1-5.056-.346A2.74,2.74,0,0,1,2.533-1.1a2.74,2.74,0,0,1-.647-.982C1.44-3.214,1.54-5.893,1.54-7.143s-.1-3.929.346-5.056a2.74,2.74,0,0,1,.647-.982,2.74,2.74,0,0,1,.982-.647C4.643-14.275,7.321-14.174,8.571-14.174Zm8.571,7.031c0-1.183.011-2.355-.056-3.538A5.1,5.1,0,0,0,15.7-14.275a5.1,5.1,0,0,0-3.594-1.384c-1.183-.067-2.355-.056-3.538-.056s-2.355-.011-3.538.056A5.1,5.1,0,0,0,1.44-14.275,5.1,5.1,0,0,0,.056-10.681C-.011-9.5,0-8.326,0-7.143S-.011-4.788.056-3.6A5.1,5.1,0,0,0,1.44-.011,5.1,5.1,0,0,0,5.033,1.373c1.183.067,2.355.056,3.538.056s2.355.011,3.538-.056A5.1,5.1,0,0,0,15.7-.011,5.1,5.1,0,0,0,17.087-3.6C17.154-4.788,17.143-5.96,17.143-7.143Z" transform="translate(0 15.715)"/>
</svg>
