<svg xmlns="http://www.w3.org/2000/svg" viewBox="0 0 17.589 14.286">
  <defs>
    <style>
      .cls-1 {
        opacity: 0.5;
      }
    </style>
  </defs>
  <path id="tw" class="cls-1" d="M18.08-12.589A7.227,7.227,0,0,1,16-12.031a3.6,3.6,0,0,0,1.585-1.987,7.1,7.1,0,0,1-2.288.871,3.6,3.6,0,0,0-2.634-1.138,3.6,3.6,0,0,0-3.6,3.6,4.069,4.069,0,0,0,.089.826,10.247,10.247,0,0,1-7.433-3.772,3.578,3.578,0,0,0-.491,1.819,3.6,3.6,0,0,0,1.607,3,3.631,3.631,0,0,1-1.629-.458v.045A3.605,3.605,0,0,0,4.1-5.681a3.811,3.811,0,0,1-.949.123,4.543,4.543,0,0,1-.681-.056,3.611,3.611,0,0,0,3.371,2.5,7.22,7.22,0,0,1-4.475,1.54,7.453,7.453,0,0,1-.871-.045A10.187,10.187,0,0,0,6.027,0,10.186,10.186,0,0,0,16.283-10.257c0-.156,0-.312-.011-.469A7.75,7.75,0,0,0,18.08-12.589Z" transform="translate(-0.491 14.286)"/>
</svg>
