<svg xmlns="http://www.w3.org/2000/svg" viewBox="0 0 21.436 12.23">
  <path id="vk" d="M21.4-11.339s-.156-.446-1.127-.324l-3.214.022a.732.732,0,0,0-.424.067.665.665,0,0,0-.279.346,20.6,20.6,0,0,1-1.194,2.511c-1.429,2.433-2.009,2.567-2.243,2.411-.547-.346-.4-1.406-.4-2.165,0-2.366.357-3.348-.7-3.6a5.912,5.912,0,0,0-1.507-.145,6.976,6.976,0,0,0-2.667.268c-.368.179-.647.58-.48.6a1.483,1.483,0,0,1,.949.48,3.3,3.3,0,0,1,.324,1.462c.123,2.779-.446,3.125-.446,3.125-.435.234-1.194-.156-2.31-2.455a22.387,22.387,0,0,1-1.15-2.388.821.821,0,0,0-.268-.357,1.164,1.164,0,0,0-.491-.2L.7-11.663a.806.806,0,0,0-.636.212s-.167.179-.011.547A29.62,29.62,0,0,0,5.167-2.478S7.656.123,10.48-.056h1.283A.963.963,0,0,0,12.355-.3a.855.855,0,0,0,.167-.569c-.022-1.719.781-1.975.781-1.975.781-.246,1.786,1.663,2.857,2.4a2.381,2.381,0,0,0,1.429.435l2.857-.045c1.507-.011.792-1.261.792-1.261a9.436,9.436,0,0,0-2.132-2.467c-1.786-1.663-1.551-1.4.614-4.275C21.038-9.81,21.563-10.882,21.4-11.339Z" transform="translate(0.011 12.224)"/>
</svg>
