<svg xmlns="http://www.w3.org/2000/svg" viewBox="0 0 158 30">
  <defs>
    <style>
      .cls-1 {
        fill: none;
      }
    </style>
  </defs>
  <g id="logo" transform="translate(-335 -34.72)">
    <rect id="Rectangle_138" data-name="Rectangle 138" class="cls-1" width="158" height="30" transform="translate(335 34.72)"/>
    <path id="Path_31" data-name="Path 31" d="M15.48-1.8V0H1.68V-16.8H5.16v15Zm9.6-13.8a6.054,6.054,0,0,0-2.292.432,4.959,4.959,0,0,0-1.86,1.32,6.521,6.521,0,0,0-1.26,2.244A9.84,9.84,0,0,0,19.2-8.4a9.84,9.84,0,0,0,.468,3.2,6.521,6.521,0,0,0,1.26,2.244,4.959,4.959,0,0,0,1.86,1.32A6.054,6.054,0,0,0,25.08-1.2a6.054,6.054,0,0,0,2.292-.432,4.959,4.959,0,0,0,1.86-1.32A6.522,6.522,0,0,0,30.492-5.2a9.84,9.84,0,0,0,.468-3.2,9.84,9.84,0,0,0-.468-3.2,6.521,6.521,0,0,0-1.26-2.244,4.959,4.959,0,0,0-1.86-1.32A6.054,6.054,0,0,0,25.08-15.6Zm0-1.68A12.6,12.6,0,0,1,29-16.7,8.357,8.357,0,0,1,32.028-15a7.66,7.66,0,0,1,1.956,2.784,9.781,9.781,0,0,1,.7,3.816,9.781,9.781,0,0,1-.7,3.816A7.66,7.66,0,0,1,32.028-1.8,8.357,8.357,0,0,1,29-.1,12.6,12.6,0,0,1,25.08.48,12.709,12.709,0,0,1,21.144-.1a8.344,8.344,0,0,1-3.036-1.7,7.538,7.538,0,0,1-1.944-2.784A9.932,9.932,0,0,1,15.48-8.4a9.932,9.932,0,0,1,.684-3.816A7.538,7.538,0,0,1,18.108-15a8.344,8.344,0,0,1,3.036-1.7A12.709,12.709,0,0,1,25.08-17.28Zm21.12,0a11.449,11.449,0,0,1,4.128.744A10.1,10.1,0,0,1,53.64-14.52l-1.2,1.44a8.757,8.757,0,0,0-2.868-1.836,8.826,8.826,0,0,0-3.132-.564,5.929,5.929,0,0,0-2.256.42A4.71,4.71,0,0,0,42.4-13.776a6.049,6.049,0,0,0-1.176,2.2A10.637,10.637,0,0,0,40.8-8.4a10.782,10.782,0,0,0,.432,3.252,6.186,6.186,0,0,0,1.2,2.232,4.664,4.664,0,0,0,1.86,1.3,6.6,6.6,0,0,0,2.388.42,7.867,7.867,0,0,0,1.86-.192,6.337,6.337,0,0,0,1.308-.456A3.838,3.838,0,0,0,50.88-2.52V-7.08H47.76V-8.64h6.6v6.6A10.019,10.019,0,0,1,52.3-.768,14.094,14.094,0,0,1,49.812.1,13.436,13.436,0,0,1,46.44.48,12.257,12.257,0,0,1,42.552-.1,8.044,8.044,0,0,1,39.6-1.8a7.378,7.378,0,0,1-1.872-2.784A10.422,10.422,0,0,1,37.08-8.4a10.422,10.422,0,0,1,.648-3.816A7.589,7.589,0,0,1,39.564-15a7.739,7.739,0,0,1,2.88-1.7A11.6,11.6,0,0,1,46.2-17.28ZM66.36-15.6a6.054,6.054,0,0,0-2.292.432,4.959,4.959,0,0,0-1.86,1.32,6.521,6.521,0,0,0-1.26,2.244,9.84,9.84,0,0,0-.468,3.2,9.84,9.84,0,0,0,.468,3.2,6.521,6.521,0,0,0,1.26,2.244,4.959,4.959,0,0,0,1.86,1.32A6.054,6.054,0,0,0,66.36-1.2a6.054,6.054,0,0,0,2.292-.432,4.959,4.959,0,0,0,1.86-1.32A6.522,6.522,0,0,0,71.772-5.2a9.84,9.84,0,0,0,.468-3.2,9.84,9.84,0,0,0-.468-3.2,6.522,6.522,0,0,0-1.26-2.244,4.959,4.959,0,0,0-1.86-1.32A6.054,6.054,0,0,0,66.36-15.6Zm0-1.68a12.6,12.6,0,0,1,3.924.576A8.357,8.357,0,0,1,73.308-15a7.66,7.66,0,0,1,1.956,2.784,9.781,9.781,0,0,1,.7,3.816,9.781,9.781,0,0,1-.7,3.816A7.66,7.66,0,0,1,73.308-1.8,8.357,8.357,0,0,1,70.284-.1,12.6,12.6,0,0,1,66.36.48,12.709,12.709,0,0,1,62.424-.1a8.344,8.344,0,0,1-3.036-1.7,7.538,7.538,0,0,1-1.944-2.784A9.932,9.932,0,0,1,56.76-8.4a9.932,9.932,0,0,1,.684-3.816A7.538,7.538,0,0,1,59.388-15a8.344,8.344,0,0,1,3.036-1.7A12.709,12.709,0,0,1,66.36-17.28ZM92.16-15H85.68V0H82.2V-15H75.72v-1.8H92.16Zm11.52,9.96V0H100.2V-5.04L92.4-16.8h3.84l5.64,8.52H102l5.64-8.52h3.84ZM121.8-16.8a12.09,12.09,0,0,1,3.228.4,6.971,6.971,0,0,1,2.412,1.152,5.11,5.11,0,0,1,1.512,1.848,5.636,5.636,0,0,1,.528,2.484,5.636,5.636,0,0,1-.528,2.484,5.11,5.11,0,0,1-1.512,1.848,6.971,6.971,0,0,1-2.412,1.152,12.09,12.09,0,0,1-3.228.4h-5.16V0h-3.48V-16.8ZM116.64-15v8.16h5.16a4.089,4.089,0,0,0,2.94-1,4.084,4.084,0,0,0,1.044-3.084A4.084,4.084,0,0,0,124.74-14a4.089,4.089,0,0,0-2.94-1Zm18.96,0v5.52h8.76v1.8H135.6V-1.8h11.16V0H132.12V-16.8h14.64V-15Z" transform="translate(340 57)"/>
  </g>
</svg>
